<svg width="40" height="40" viewBox="0 0 40 40" fill="none" xmlns="http://www.w3.org/2000/svg">
<path d="M19.9999 0.0351565C19.5801 0.0353909 19.1598 0.174512 18.817 0.452637L16.7382 2.15064C16.6 2.26189 16.4237 2.30938 16.2474 2.28125L13.6034 1.86377C12.7259 1.71689 11.8579 2.21297 11.5416 3.04297L10.5797 5.54419C10.5166 5.70856 10.3858 5.83933 10.2196 5.90308L7.72082 6.86621C6.89832 7.18059 6.40105 8.04029 6.53918 8.90967L6.95788 11.5598C6.98538 11.7342 6.93726 11.9124 6.82726 12.0493L5.14025 14.1306C4.58463 14.815 4.58463 15.8095 5.14025 16.4939L6.83825 18.5862C6.9495 18.7237 6.99758 18.9019 6.97008 19.0769L6.55138 21.7271C6.41388 22.5971 6.91118 23.4561 7.7318 23.7705L8.19201 23.9475L3.54845 34.4895C3.46095 34.6876 3.48211 34.9174 3.60461 35.0962C3.72773 35.2749 3.93526 35.3747 4.15026 35.3672L9.42248 35.1096L12.7916 39.1721C12.911 39.3165 13.0882 39.3979 13.2726 39.3979C13.3013 39.3979 13.3299 39.3962 13.3592 39.3918C13.5736 39.3618 13.757 39.2238 13.8439 39.0256L18.026 29.531L18.8182 30.1731C19.1607 30.4506 19.5805 30.5894 19.9999 30.5894C20.4192 30.5894 20.839 30.4506 21.1803 30.1731L22.0262 29.4858L26.2279 39.0256C26.3154 39.2238 26.4988 39.3618 26.7125 39.3918C26.7419 39.3962 26.7717 39.3979 26.8004 39.3979C26.9848 39.3979 27.1614 39.3165 27.2814 39.1721L30.6493 35.1096L35.9215 35.3672C36.1353 35.3759 36.3447 35.2756 36.4672 35.0962C36.5884 34.9174 36.6102 34.6876 36.5233 34.4895L31.8663 23.9182L32.2789 23.7595C33.1014 23.4451 33.5987 22.5842 33.4606 21.7148L33.0419 19.0659C33.0144 18.8915 33.0625 18.7121 33.1725 18.5752L34.8595 16.4939C35.4151 15.8095 35.4151 14.8162 34.8595 14.1318L33.1603 12.0383C33.049 11.9008 33.0022 11.7226 33.0297 11.5476L33.4484 8.89746C33.5859 8.02746 33.0886 7.16838 32.2679 6.854L29.7667 5.89087C29.6023 5.82774 29.4716 5.69639 29.4078 5.53076L28.4459 3.03198C28.1309 2.20948 27.2712 1.71281 26.4012 1.85156L23.7523 2.27026C23.5786 2.29901 23.3985 2.24965 23.2616 2.13965L21.1803 0.451416C20.8384 0.173604 20.4196 0.0349222 19.9999 0.0351565ZM19.9999 1.28394C20.1397 1.28394 20.2801 1.33028 20.3942 1.4231L22.4767 3.11133C22.8886 3.4432 23.4245 3.58627 23.9476 3.50439L26.5978 3.08569C26.884 3.04069 27.1739 3.20498 27.2789 3.47998L28.2408 5.97998C28.4315 6.47498 28.8243 6.86786 29.3187 7.05786L31.8199 8.021C32.0943 8.126 32.2598 8.41215 32.2142 8.70215L31.7955 11.3511C31.7118 11.8742 31.8561 12.4113 32.1898 12.8245L33.8903 14.918C34.0753 15.1461 34.0753 15.4784 33.8903 15.7065L32.2008 17.7891C31.8683 18.2016 31.7246 18.7375 31.8077 19.26L32.2264 21.9102C32.2721 22.2002 32.1065 22.4863 31.8321 22.5913L29.3321 23.5544C28.8371 23.7444 28.4437 24.1361 28.253 24.6311L27.2911 27.1323C27.1861 27.4061 26.905 27.5741 26.61 27.5266L23.9598 27.1067C23.4386 27.0236 22.9008 27.1678 22.4877 27.5022L20.3942 29.2014C20.166 29.387 19.8337 29.3864 19.6056 29.2014L17.5231 27.5132C17.1874 27.2426 16.7701 27.0969 16.3439 27.0969C16.247 27.0969 16.149 27.1051 16.0521 27.1201L13.402 27.5388C13.1145 27.5851 12.8258 27.4202 12.7208 27.1445L11.7589 24.6445C11.5683 24.1495 11.1754 23.7567 10.681 23.5667L8.1798 22.6035C7.90543 22.4985 7.73989 22.2124 7.78551 21.9224L8.20422 19.2734C8.28796 18.7503 8.14368 18.2132 7.80993 17.8L6.10949 15.7065C5.92449 15.4784 5.92449 15.1461 6.10949 14.918L7.79894 12.8354C8.13144 12.4229 8.27513 11.887 8.19201 11.3645L7.77331 8.71436C7.72768 8.42436 7.89444 8.1382 8.16881 8.0332L10.6676 7.07007C11.1626 6.88007 11.5561 6.48841 11.7467 5.99341L12.7098 3.49097C12.8155 3.21409 13.1076 3.0479 13.402 3.0979L16.0521 3.51782C16.5752 3.59907 17.1117 3.45609 17.5267 3.12109L19.6056 1.4231C19.7196 1.33028 19.86 1.28394 19.9999 1.28394ZM19.9999 5.31226C14.4861 5.31226 9.99987 9.79851 9.99987 15.3123C9.99987 15.7679 10.0308 16.2264 10.0914 16.6746C10.1339 16.9877 10.4022 17.2153 10.7103 17.2153C10.7384 17.2153 10.767 17.2136 10.7958 17.2092C11.137 17.163 11.3767 16.848 11.3304 16.5061C11.2767 16.1136 11.2499 15.7116 11.2499 15.3123C11.2499 10.4873 15.1749 6.56226 19.9999 6.56226C20.3455 6.56226 20.6249 6.28226 20.6249 5.93726C20.6249 5.59226 20.3455 5.31226 19.9999 5.31226ZM24.1002 6.38037C23.8564 6.3664 23.6184 6.49746 23.5045 6.72949C23.3526 7.03949 23.4796 7.41317 23.7889 7.56567C24.3671 7.85005 24.9137 8.20009 25.4149 8.60571C25.5305 8.69946 25.6698 8.74487 25.808 8.74487C25.9905 8.74487 26.1701 8.66606 26.2938 8.51294C26.5113 8.24481 26.471 7.85153 26.2023 7.63403C25.6291 7.17028 25.0026 6.76947 24.3407 6.44385C24.2624 6.40541 24.1815 6.38503 24.1002 6.38037ZM28.4203 10.6235C28.339 10.6275 28.2569 10.6474 28.1786 10.6846C27.868 10.8346 27.7368 11.2083 27.8868 11.5195C28.4587 12.7077 28.7499 13.9829 28.7499 15.3123C28.7499 17.0248 28.2561 18.684 27.3204 20.1084C27.1311 20.3971 27.2099 20.7845 27.4986 20.9739C27.6043 21.0433 27.7242 21.0764 27.8417 21.0764C28.0448 21.0764 28.2447 20.9769 28.3653 20.7944C29.4353 19.1657 29.9999 17.2698 29.9999 15.3123C29.9999 13.7935 29.6685 12.3344 29.0135 10.9763C28.902 10.7429 28.6641 10.6118 28.4203 10.6235ZM24.9999 11.8748C24.84 11.8748 24.6802 11.9357 24.558 12.0579L18.7499 17.866L15.4418 14.5579C15.1974 14.3135 14.8024 14.3135 14.558 14.5579C14.3136 14.8022 14.3136 15.1973 14.558 15.4417L18.308 19.1917C18.4299 19.3135 18.5899 19.3748 18.7499 19.3748C18.9099 19.3748 19.0699 19.3135 19.1918 19.1917L25.4418 12.9417C25.6861 12.6973 25.6861 12.3022 25.4418 12.0579C25.3196 11.9357 25.1597 11.8748 24.9999 11.8748ZM12.4376 19.2393C12.3574 19.2512 12.2779 19.2797 12.2045 19.3247L11.1376 19.9753C10.8426 20.1553 10.7488 20.5397 10.9288 20.8347C11.0463 21.0278 11.2529 21.1338 11.4635 21.1338C11.5747 21.1338 11.6863 21.1053 11.7882 21.0435L12.8551 20.3916C13.1501 20.2116 13.2426 19.8272 13.0626 19.5322C12.9276 19.311 12.6783 19.2033 12.4376 19.2393ZM14.3798 21.4365C14.2206 21.4519 14.0662 21.5283 13.9562 21.6611L13.1615 22.6255C12.9421 22.8917 12.9795 23.2856 13.2457 23.5056C13.3626 23.6019 13.5024 23.6484 13.6424 23.6484C13.8224 23.6484 14.0021 23.5714 14.1258 23.4214L14.9205 22.457C15.1399 22.1908 15.1025 21.7969 14.8363 21.5769C14.7029 21.4669 14.5389 21.4211 14.3798 21.4365ZM25.3722 21.6599C25.2137 21.6384 25.0476 21.6776 24.9108 21.782C24.6364 21.9907 24.5836 22.3841 24.7924 22.6584L25.5492 23.6533C25.6723 23.8152 25.8585 23.8999 26.0472 23.8999C26.1791 23.8999 26.3119 23.858 26.4244 23.7717C26.6988 23.563 26.7516 23.1709 26.5428 22.8965L25.786 21.9016C25.6813 21.7644 25.5307 21.6814 25.3722 21.6599ZM16.9335 22.8916C16.6899 22.9029 16.4656 23.0553 16.3756 23.2981L15.9423 24.47C15.8223 24.7937 15.9872 25.1532 16.3109 25.2732C16.3834 25.2988 16.4563 25.3123 16.5282 25.3123C16.7826 25.3123 17.021 25.1564 17.1141 24.9045L17.5475 23.7327C17.6675 23.4089 17.5026 23.0494 17.1788 22.9294C17.0974 22.8998 17.0146 22.8878 16.9335 22.8916ZM22.7623 23.0088C22.6814 23.0019 22.5976 23.01 22.5157 23.0369C22.187 23.1437 22.0073 23.4961 22.1141 23.8242L22.5011 25.0132C22.5873 25.2769 22.8318 25.4453 23.0956 25.4453C23.1599 25.4453 23.2253 25.4348 23.2897 25.4136C23.6184 25.3067 23.7969 24.9543 23.6901 24.6262L23.3031 23.4385C23.2229 23.1924 23.005 23.0294 22.7623 23.0088ZM19.8265 23.4287C19.4872 23.4287 19.2084 23.7009 19.2015 24.0415L19.1759 25.2915C19.169 25.6365 19.4431 25.9218 19.7887 25.9287H19.8009C20.1403 25.9287 20.419 25.6584 20.4259 25.3171L20.4515 24.0671C20.4584 23.7221 20.1837 23.4356 19.8387 23.4287H19.8265ZM30.6993 24.3674L34.9718 34.0684L30.399 33.845C30.1997 33.8381 30.0132 33.9189 29.8876 34.0708L26.964 37.5962L23.0333 28.6692L23.2738 28.4739C23.4119 28.3633 23.5908 28.317 23.7645 28.3433L26.4147 28.762C27.2784 28.8963 28.1431 28.4028 28.4581 27.5815L29.42 25.0815C29.4832 24.9172 29.6139 24.7852 29.7801 24.7214L30.6993 24.3674ZM9.359 24.3979L10.2318 24.7336C10.3962 24.7968 10.5269 24.9281 10.5907 25.0938L11.5538 27.5925C11.8682 28.4144 12.726 28.9086 13.5973 28.7729L16.2474 28.3542C16.4231 28.3267 16.6007 28.3749 16.7369 28.4849L17.0189 28.7131L13.1066 37.595L10.1842 34.0708C10.0654 33.9271 9.88764 33.8438 9.70202 33.8438C9.69139 33.8438 9.68213 33.8443 9.6715 33.845L5.09875 34.0684L9.359 24.3979Z" fill="white"/>
<path d="M20 5.31226C14.4862 5.31226 9.99997 9.79851 9.99997 15.3123C9.99997 15.7679 10.0309 16.2264 10.0915 16.6746C10.134 16.9877 10.4023 17.2153 10.7104 17.2153C10.7385 17.2153 10.7671 17.2136 10.7959 17.2092C11.1371 17.163 11.3768 16.848 11.3305 16.5061C11.2768 16.1136 11.25 15.7116 11.25 15.3123C11.25 10.4873 15.175 6.56226 20 6.56226C20.3456 6.56226 20.625 6.28226 20.625 5.93726C20.625 5.59226 20.3456 5.31226 20 5.31226ZM24.1003 6.38037C23.8565 6.3664 23.6185 6.49746 23.5046 6.72949C23.3527 7.03949 23.4797 7.41317 23.789 7.56567C24.3672 7.85005 24.9138 8.20009 25.415 8.60571C25.5306 8.69946 25.67 8.74487 25.8081 8.74487C25.9906 8.74487 26.1702 8.66606 26.2939 8.51294C26.5114 8.24481 26.4711 7.85153 26.2024 7.63403C25.6292 7.17028 25.0027 6.76947 24.3408 6.44385C24.2625 6.40541 24.1816 6.38503 24.1003 6.38037ZM28.4204 10.6235C28.3391 10.6275 28.257 10.6474 28.1787 10.6846C27.8681 10.8346 27.7369 11.2083 27.8869 11.5195C28.4588 12.7077 28.75 13.9829 28.75 15.3123C28.75 17.0248 28.2562 18.684 27.3205 20.1084C27.1312 20.3971 27.21 20.7845 27.4988 20.9739C27.6044 21.0433 27.7243 21.0764 27.8418 21.0764C28.0449 21.0764 28.2448 20.9769 28.3654 20.7944C29.4354 19.1657 30 17.2698 30 15.3123C30 13.7935 29.6686 12.3344 29.0136 10.9763C28.9021 10.7429 28.6642 10.6118 28.4204 10.6235ZM25 11.8748C24.8401 11.8748 24.6803 11.9357 24.5581 12.0579L18.75 17.866L15.4419 14.5579C15.1975 14.3135 14.8025 14.3135 14.5581 14.5579C14.3137 14.8022 14.3137 15.1973 14.5581 15.4417L18.3081 19.1917C18.43 19.3135 18.59 19.3748 18.75 19.3748C18.91 19.3748 19.07 19.3135 19.1919 19.1917L25.4419 12.9417C25.6862 12.6973 25.6862 12.3022 25.4419 12.0579C25.3197 11.9357 25.1598 11.8748 25 11.8748ZM12.4377 19.2393C12.3575 19.2512 12.278 19.2797 12.2046 19.3247L11.1377 19.9753C10.8427 20.1553 10.7489 20.5397 10.9289 20.8347C11.0464 21.0278 11.253 21.1338 11.4636 21.1338C11.5748 21.1338 11.6864 21.1053 11.7883 21.0435L12.8552 20.3916C13.1502 20.2116 13.2427 19.8272 13.0627 19.5322C12.9277 19.311 12.6784 19.2033 12.4377 19.2393ZM14.3799 21.4365C14.2207 21.4519 14.0663 21.5283 13.9563 21.6611L13.1616 22.6255C12.9422 22.8917 12.9796 23.2856 13.2458 23.5056C13.3627 23.6019 13.5025 23.6484 13.6425 23.6484C13.8225 23.6484 14.0022 23.5714 14.1259 23.4214L14.9206 22.457C15.14 22.1908 15.1026 21.7969 14.8364 21.5769C14.703 21.4669 14.539 21.4211 14.3799 21.4365ZM25.3723 21.6599C25.2138 21.6384 25.0477 21.6776 24.9109 21.782C24.6365 21.9907 24.5837 22.3841 24.7925 22.6584L25.5493 23.6533C25.6724 23.8152 25.8586 23.8999 26.0473 23.8999C26.1792 23.8999 26.312 23.858 26.4245 23.7717C26.6989 23.563 26.7517 23.1709 26.5429 22.8965L25.7861 21.9016C25.6814 21.7644 25.5308 21.6814 25.3723 21.6599ZM16.9336 22.8916C16.69 22.9029 16.4657 23.0553 16.3757 23.2981L15.9424 24.47C15.8224 24.7937 15.9873 25.1532 16.311 25.2732C16.3835 25.2988 16.4564 25.3123 16.5283 25.3123C16.7827 25.3123 17.0211 25.1564 17.1142 24.9045L17.5476 23.7327C17.6676 23.4089 17.5027 23.0494 17.1789 22.9294C17.0975 22.8998 17.0147 22.8878 16.9336 22.8916ZM22.7624 23.0088C22.6815 23.0019 22.5977 23.01 22.5158 23.0369C22.1871 23.1437 22.0074 23.4961 22.1142 23.8242L22.5012 25.0132C22.5874 25.2769 22.8319 25.4453 23.0957 25.4453C23.16 25.4453 23.2254 25.4348 23.2898 25.4136C23.6185 25.3067 23.797 24.9543 23.6902 24.6262L23.3032 23.4385C23.223 23.1924 23.0051 23.0294 22.7624 23.0088ZM19.8266 23.4287C19.4873 23.4287 19.2085 23.7009 19.2016 24.0415L19.176 25.2915C19.1691 25.6365 19.4432 25.9218 19.7888 25.9287H19.801C20.1404 25.9287 20.4191 25.6584 20.426 25.3171L20.4516 24.0671C20.4585 23.7221 20.1838 23.4356 19.8388 23.4287H19.8266Z" fill="#0079C0"/>
</svg>
