<svg width="40" height="40" viewBox="0 0 40 40" fill="none" xmlns="http://www.w3.org/2000/svg">
<g clip-path="url(#clip0_631_3)">
<path d="M22.6561 3.125C21.8374 3.125 21.1181 3.65649 20.8556 4.46899L19.5372 9.15649C19.4997 9.26274 19.2436 9.375 18.7499 9.375H1.87489C1.33114 9.375 0.812684 9.65044 0.456434 10.1379C0.0314336 10.7067 -0.112072 11.4684 0.0816777 12.0996L2.49379 20.6628C2.71879 21.3878 3.34305 21.9193 4.0868 22.0068L4.99989 22.113V26.25H3.58754C2.64379 26.25 1.87489 27.0938 1.87489 28.125V31.875C1.87489 32.9062 2.64379 33.75 3.58754 33.75H6.29994C6.60495 35.8662 8.42574 37.5 10.6249 37.5C12.824 37.5 14.6448 35.8662 14.9498 33.75H26.9249C27.2299 35.8662 29.0507 37.5 31.2499 37.5C33.449 37.5 35.2698 35.8662 35.5748 33.75H38.2872C39.231 33.75 39.9999 32.9062 39.9999 31.875V28.125C39.9999 27.2702 39.4682 26.5515 38.7499 26.3281V19.375C38.7499 18.4438 37.8061 17.5 36.8749 17.5H35.4503L33.8121 12.5684C33.5934 11.7809 32.9247 11.25 32.1434 11.25H26.8749C25.8936 11.25 24.9999 12.1438 24.9999 13.125V19.3188C24.9874 19.3376 24.9625 19.3625 24.9437 19.375H21.5441L24.6056 8.08716C24.7744 7.49966 24.9436 7.5 24.9999 7.5H29.6752C30.2627 7.5 30.8191 7.26919 31.2316 6.85669C31.6378 6.44419 31.8627 5.89971 31.8627 5.32471V5.30029C31.8564 4.10029 30.8752 3.125 29.6752 3.125H22.6561ZM22.6561 4.375H29.6752C30.1939 4.375 30.6127 4.7939 30.6127 5.3064C30.6189 5.5564 30.5191 5.79409 30.3441 5.97534C30.1691 6.15034 29.9314 6.25 29.6752 6.25H24.9999C24.4686 6.25 23.7557 6.5126 23.4057 7.75635L20.2501 19.375L19.912 20.625L19.5311 22.019C19.4436 22.3315 19.1564 22.5314 18.8439 22.4939L6.33778 21.012L5.05604 20.863L4.23085 20.7629C3.98085 20.7379 3.76874 20.55 3.69374 20.3125L1.28163 11.7505C1.20038 11.4817 1.26869 11.1313 1.45619 10.8813C1.53119 10.7876 1.67489 10.625 1.87489 10.625H18.7499C20.1624 10.625 20.5936 9.94404 20.7311 9.51904L22.0494 4.83154C22.1369 4.55654 22.3811 4.375 22.6561 4.375ZM3.77553 11.2524C3.69482 11.244 3.61129 11.2515 3.52894 11.2769C3.19832 11.3775 3.01206 11.7269 3.11268 12.0569L3.49354 13.3069C3.57542 13.5763 3.82234 13.75 4.09047 13.75C4.15109 13.75 4.21295 13.7413 4.27357 13.7231C4.6042 13.6225 4.79046 13.2731 4.68983 12.9431L4.30897 11.6931C4.2335 11.4447 4.01763 11.2776 3.77553 11.2524ZM26.8749 12.5H32.1434C32.3559 12.5 32.5434 12.6563 32.6122 12.9126C32.6247 12.9563 32.6374 12.9934 32.6561 13.0371L34.2626 17.8943C34.4376 18.4068 34.9128 18.75 35.4503 18.75H36.8749C37.0936 18.75 37.4999 19.1187 37.4999 19.375V20H35.7067C34.8236 20 34.3749 20.4906 34.3749 21.4587V22.2925C34.3749 23.26 34.8236 23.75 35.7067 23.75H37.4999V26.25H6.24989V22.262L18.6937 23.7378C18.7687 23.744 18.8433 23.75 18.9183 23.75C19.7496 23.75 20.4934 23.1936 20.7372 22.3499L21.2059 20.625H24.9999V21.875C24.9999 22.22 25.2799 22.5 25.6249 22.5C25.9699 22.5 26.2499 22.22 26.2499 21.875V19.375V13.125C26.2499 12.8 26.5999 12.5 26.8749 12.5ZM28.1249 13.75C27.7799 13.75 27.4999 14.03 27.4999 14.375V18.75C27.4999 19.095 27.7799 19.375 28.1249 19.375H32.4999C32.7005 19.375 32.8896 19.2793 33.0065 19.1162C33.124 18.9531 33.1569 18.7429 33.0932 18.5522L31.6344 14.1772C31.5488 13.9216 31.3117 13.75 31.0424 13.75H28.1249ZM28.7499 15H30.5907L31.632 18.125H28.7499V15ZM4.91688 15.0024C4.83629 14.9941 4.75233 15.0014 4.6703 15.0269C4.33968 15.1275 4.15342 15.4769 4.25404 15.8069L5.20497 18.9319C5.28684 19.2013 5.53377 19.375 5.80189 19.375C5.86189 19.375 5.92437 19.3663 5.985 19.3481C6.31562 19.2475 6.50188 18.8981 6.40126 18.5681L5.45033 15.4431C5.37439 15.1947 5.15867 15.0275 4.91688 15.0024ZM35.7067 21.25H37.1996V22.5H35.7067C35.6786 22.5 35.6558 22.4988 35.6371 22.4976C35.6308 22.4544 35.6249 22.3888 35.6249 22.2913V21.4575C35.6249 21.3606 35.6303 21.2956 35.6359 21.2524C35.6546 21.2512 35.6786 21.25 35.7067 21.25ZM3.58754 27.5H4.99989H6.24989H37.4999H38.2872C38.5372 27.5 38.7499 27.7875 38.7499 28.125V31.875C38.7499 32.2125 38.5372 32.5 38.2872 32.5H35.5748C35.2698 30.3838 33.449 28.75 31.2499 28.75C29.0507 28.75 27.2299 30.3838 26.9249 32.5H14.9498C14.6448 30.3838 12.824 28.75 10.6249 28.75C8.42574 28.75 6.60495 30.3838 6.29994 32.5H3.58754C3.33754 32.5 3.12489 32.2125 3.12489 31.875V28.125C3.12489 27.7875 3.33754 27.5 3.58754 27.5ZM4.99989 28.75C4.65427 28.75 4.37489 29.0294 4.37489 29.375V30.625C4.37489 30.9706 4.65427 31.25 4.99989 31.25C5.34552 31.25 5.62489 30.9706 5.62489 30.625V29.375C5.62489 29.0294 5.34552 28.75 4.99989 28.75ZM16.2499 28.75C15.9043 28.75 15.6249 29.0294 15.6249 29.375V30.625C15.6249 30.9706 15.9043 31.25 16.2499 31.25C16.5955 31.25 16.8749 30.9706 16.8749 30.625V29.375C16.8749 29.0294 16.5955 28.75 16.2499 28.75ZM19.3749 28.75C19.0293 28.75 18.7499 29.0294 18.7499 29.375V30.625C18.7499 30.9706 19.0293 31.25 19.3749 31.25C19.7205 31.25 19.9999 30.9706 19.9999 30.625V29.375C19.9999 29.0294 19.7205 28.75 19.3749 28.75ZM22.4999 28.75C22.1543 28.75 21.8749 29.0294 21.8749 29.375V30.625C21.8749 30.9706 22.1543 31.25 22.4999 31.25C22.8455 31.25 23.1249 30.9706 23.1249 30.625V29.375C23.1249 29.0294 22.8455 28.75 22.4999 28.75ZM25.6249 28.75C25.2793 28.75 24.9999 29.0294 24.9999 29.375V30.625C24.9999 30.9706 25.2793 31.25 25.6249 31.25C25.9705 31.25 26.2499 30.9706 26.2499 30.625V29.375C26.2499 29.0294 25.9705 28.75 25.6249 28.75ZM10.6249 30C12.348 30 13.7499 31.4019 13.7499 33.125C13.7499 34.8481 12.348 36.25 10.6249 36.25C9.07899 36.25 7.79472 35.1202 7.54628 33.6438C7.52044 33.4746 7.49989 33.3014 7.49989 33.125C7.49989 32.9486 7.52044 32.7754 7.54628 32.6062C7.79472 31.1298 9.07899 30 10.6249 30ZM31.2499 30C32.973 30 34.3749 31.4019 34.3749 33.125C34.3749 34.8481 32.973 36.25 31.2499 36.25C29.5268 36.25 28.1249 34.8481 28.1249 33.125C28.1249 31.4019 29.5268 30 31.2499 30ZM10.6249 31.875C9.93427 31.875 9.37489 32.4344 9.37489 33.125C9.37489 33.8156 9.93427 34.375 10.6249 34.375C11.3155 34.375 11.8749 33.8156 11.8749 33.125C11.8749 32.4344 11.3155 31.875 10.6249 31.875ZM31.2499 31.875C30.5593 31.875 29.9999 32.4344 29.9999 33.125C29.9999 33.8156 30.5593 34.375 31.2499 34.375C31.9405 34.375 32.4999 33.8156 32.4999 33.125C32.4999 32.4344 31.9405 31.875 31.2499 31.875Z" fill="white"/>
</g>
<g clip-path="url(#clip1_631_3)">
<path d="M3.77577 11.2522C3.69507 11.2438 3.61153 11.2513 3.52919 11.2766C3.19856 11.3772 3.0123 11.7266 3.11293 12.0566L3.49379 13.3066C3.57566 13.576 3.82259 13.7498 4.09071 13.7498C4.15134 13.7498 4.21319 13.741 4.27382 13.7229C4.60444 13.6223 4.7907 13.2729 4.69008 12.9429L4.30922 11.6929C4.23375 11.4444 4.01788 11.2774 3.77577 11.2522ZM28.1251 13.7498C27.7801 13.7498 27.5001 14.0298 27.5001 14.3748V18.7498C27.5001 19.0948 27.7801 19.3748 28.1251 19.3748H32.5001C32.7008 19.3748 32.8899 19.2791 33.0067 19.116C33.1242 18.9528 33.1571 18.7426 33.0934 18.552L31.6347 14.177C31.549 13.9214 31.312 13.7498 31.0426 13.7498H28.1251ZM28.7501 14.9998H30.591L31.6322 18.1248H28.7501V14.9998ZM4.91713 15.0022C4.83653 14.9938 4.75258 15.0011 4.67055 15.0266C4.33992 15.1272 4.15366 15.4766 4.25429 15.8066L5.20521 18.9316C5.28709 19.201 5.53401 19.3748 5.80214 19.3748C5.86214 19.3748 5.92462 19.366 5.98524 19.3479C6.31587 19.2473 6.50213 18.8979 6.4015 18.5679L5.45057 15.4429C5.37464 15.1944 5.15891 15.0273 4.91713 15.0022ZM5.00013 28.7498C4.65451 28.7498 4.37513 29.0291 4.37513 29.3748V30.6248C4.37513 30.9704 4.65451 31.2498 5.00013 31.2498C5.34576 31.2498 5.62513 30.9704 5.62513 30.6248V29.3748C5.62513 29.0291 5.34576 28.7498 5.00013 28.7498ZM16.2501 28.7498C15.9045 28.7498 15.6251 29.0291 15.6251 29.3748V30.6248C15.6251 30.9704 15.9045 31.2498 16.2501 31.2498C16.5958 31.2498 16.8751 30.9704 16.8751 30.6248V29.3748C16.8751 29.0291 16.5958 28.7498 16.2501 28.7498ZM19.3751 28.7498C19.0295 28.7498 18.7501 29.0291 18.7501 29.3748V30.6248C18.7501 30.9704 19.0295 31.2498 19.3751 31.2498C19.7208 31.2498 20.0001 30.9704 20.0001 30.6248V29.3748C20.0001 29.0291 19.7208 28.7498 19.3751 28.7498ZM22.5001 28.7498C22.1545 28.7498 21.8751 29.0291 21.8751 29.3748V30.6248C21.8751 30.9704 22.1545 31.2498 22.5001 31.2498C22.8458 31.2498 23.1251 30.9704 23.1251 30.6248V29.3748C23.1251 29.0291 22.8458 28.7498 22.5001 28.7498ZM25.6251 28.7498C25.2795 28.7498 25.0001 29.0291 25.0001 29.3748V30.6248C25.0001 30.9704 25.2795 31.2498 25.6251 31.2498C25.9708 31.2498 26.2501 30.9704 26.2501 30.6248V29.3748C26.2501 29.0291 25.9708 28.7498 25.6251 28.7498ZM10.6251 31.8748C9.93451 31.8748 9.37513 32.4341 9.37513 33.1248C9.37513 33.8154 9.93451 34.3748 10.6251 34.3748C11.3158 34.3748 11.8751 33.8154 11.8751 33.1248C11.8751 32.4341 11.3158 31.8748 10.6251 31.8748ZM31.2501 31.8748C30.5595 31.8748 30.0001 32.4341 30.0001 33.1248C30.0001 33.8154 30.5595 34.3748 31.2501 34.3748C31.9408 34.3748 32.5001 33.8154 32.5001 33.1248C32.5001 32.4341 31.9408 31.8748 31.2501 31.8748Z" fill="#0079C0"/>
</g>
<defs>
<clipPath id="clip0_631_3">
<rect width="40" height="40" fill="white"/>
</clipPath>
<clipPath id="clip1_631_3">
<rect width="40" height="40" fill="white"/>
</clipPath>
</defs>
</svg>
