<svg width="40" height="40" viewBox="0 0 40 40" fill="none" xmlns="http://www.w3.org/2000/svg">
<path d="M31.9629 2.56334C29.1382 2.52183 25.9766 4.03062 24.1211 5.88609C23.4156 6.59166 22.9761 7.27281 22.7246 7.94908C21.8335 7.28502 20.8399 6.75523 19.5923 6.61851L15.3516 6.14732L13.5132 5.88609C12.5464 5.74693 11.5552 6.07652 10.8618 6.76744L1.02542 16.6014C0.119655 17.5096 -0.141575 18.9086 0.380886 20.0804L2.55374 24.9706C3.03225 26.0472 3.72073 26.9872 4.6094 27.7709L6.6553 29.5384L6.43557 29.7557C5.61038 30.5809 5.15628 31.6795 5.15628 32.849C5.15628 34.0184 5.61038 35.117 6.43557 35.9447C7.29007 36.7967 8.40823 37.224 9.53128 37.224C10.6519 37.224 11.77 36.7967 12.6245 35.9447L13.2959 35.2709L15.0415 36.7796C15.586 37.2557 16.2671 37.4901 16.9434 37.4901C17.688 37.4901 18.4302 37.2093 18.9917 36.6478C19.5337 36.1034 19.834 35.3807 19.834 34.6092C19.834 34.5018 19.8267 34.392 19.8145 34.2845C20.8692 34.6703 22.0899 34.431 22.9199 33.6034C23.5205 33.0028 23.8062 32.2069 23.7793 31.4183C24.9195 32.0775 26.3867 31.9017 27.3389 30.9496C28.0835 30.2074 28.3472 29.16 28.1275 28.203C29.0894 28.4227 30.1367 28.1517 30.8765 27.4144L31.0254 27.2655C32.0923 26.1961 32.1533 24.4676 31.1646 23.3275L28.4156 20.1537L29.3653 19.2015C32.0069 20.0316 34.1138 20.6419 36.4942 18.2591C38.7696 15.9837 40.5298 11.7308 39.5313 8.55699C39.4678 8.34947 39.2969 8.19078 39.0845 8.13951C38.8721 8.0858 38.6475 8.14927 38.4937 8.30308L34.5923 12.2044C34.4361 12.3607 34.2041 12.4217 33.9917 12.3656L33.3081 12.1825C31.8018 11.7796 30.6177 10.5931 30.2149 9.08922L30.0293 8.40562C29.9732 8.19078 30.0342 7.95884 30.1929 7.80259L34.0991 3.8939C34.253 3.74009 34.3164 3.51548 34.2652 3.30552C34.2139 3.09312 34.0552 2.92222 33.8477 2.85631C33.252 2.66588 32.6172 2.5731 31.9629 2.56334ZM31.9068 3.82066C32.0679 3.82066 32.2266 3.82798 32.3828 3.84019L29.3067 6.91636C28.833 7.38756 28.6499 8.08336 28.8208 8.72789L29.0039 9.41148C29.524 11.3475 31.0474 12.871 32.981 13.3885L33.6646 13.5741C34.3116 13.7474 35.0049 13.5594 35.4785 13.0858L38.5425 10.0218C38.7354 12.5218 37.3267 15.659 35.6104 17.3753C33.7207 19.2626 32.2583 18.8036 29.5996 17.9662L29.3775 17.8954C29.1553 17.827 28.9112 17.8856 28.7476 18.0492L27.5928 19.2064L23.4888 14.4701L24.3286 13.6302C24.4947 13.4667 24.5532 13.2225 24.4824 13.0003L24.4141 12.7782C23.5742 10.1195 23.1128 8.65709 25.0025 6.76744C26.6187 5.15367 29.4898 3.81578 31.9068 3.82066ZM12.9004 7.11168C13.042 7.09703 13.1885 7.10191 13.335 7.12144L15.1929 7.38756C15.1953 7.38756 15.1978 7.38511 15.2002 7.38511C15.2051 7.38756 15.2075 7.39 15.2124 7.39L19.4532 7.85875C20.6348 7.99058 21.5406 8.5692 22.4439 9.32359C22.395 10.4857 22.7564 11.682 23.1763 13.015L22.666 13.5228L21.0547 11.6625C20.8301 11.4012 20.4346 11.3744 20.1734 11.6014C19.9121 11.826 19.8853 12.2215 20.1099 12.4803L30.2198 24.1454C30.7813 24.7923 30.7471 25.7738 30.1392 26.3793L29.9903 26.5306C29.3848 27.1361 28.4204 27.1971 27.7442 26.6698L25.3882 24.8363C25.127 24.6336 24.7534 24.6678 24.5362 24.9169C24.3164 25.1634 24.3286 25.5394 24.5606 25.7713L26.4551 27.6659C27.1167 28.3275 27.1167 29.4042 26.4551 30.0682C25.8496 30.6712 24.8853 30.7323 24.209 30.2049L21.8531 28.3714C21.5918 28.1688 21.2183 28.203 20.9986 28.452C20.7813 28.6986 20.7935 29.0746 21.0254 29.3065L22.0337 30.3148C22.6978 30.9789 22.6978 32.0555 22.0337 32.7171C21.4307 33.3226 20.4639 33.3812 19.7901 32.8587L17.4317 31.0253C17.1729 30.8202 16.7993 30.8544 16.5796 31.1034C16.3623 31.35 16.3721 31.7259 16.6065 31.9603L18.1055 33.4569C18.4131 33.7645 18.584 34.1747 18.584 34.6092C18.584 35.0462 18.4131 35.4564 18.1055 35.764C17.4976 36.3719 16.5113 36.4061 15.8618 35.8373L5.42971 26.8285C4.68264 26.1693 4.10159 25.3758 3.69632 24.4652L1.52346 19.5726C1.21096 18.8695 1.36721 18.0321 1.90921 17.4877L11.7456 7.65367C12.0557 7.34117 12.4683 7.15318 12.9004 7.11168ZM26.3282 11.0057C26.1695 11.0057 26.0108 11.0668 25.8887 11.1888C25.6421 11.433 25.6421 11.8285 25.8887 12.0726L30.3052 16.4916C30.4273 16.6136 30.5884 16.6747 30.7495 16.6747C30.9082 16.6747 31.0694 16.6136 31.1914 16.4916C31.4356 16.2474 31.4356 15.8519 31.1914 15.6078L26.77 11.1888C26.648 11.0668 26.4893 11.0057 26.3282 11.0057ZM22.3511 20.2855C22.19 20.2855 22.0313 20.3465 21.9092 20.4686C21.6651 20.7152 21.6651 21.1083 21.9092 21.3524L22.793 22.2362C22.9151 22.3583 23.0762 22.4193 23.2349 22.4193C23.396 22.4193 23.5572 22.3583 23.6792 22.2362C23.9234 21.992 23.9234 21.5965 23.6792 21.3524L22.793 20.4686C22.6709 20.3465 22.5122 20.2855 22.3511 20.2855ZM20.1416 22.4974C19.9805 22.4974 19.8218 22.556 19.6997 22.6781C19.4556 22.9222 19.4556 23.3202 19.6997 23.5643L20.586 24.4457C20.7056 24.5677 20.8667 24.6288 21.0254 24.6288C21.1866 24.6288 21.3477 24.5677 21.4673 24.4457C21.7139 24.2015 21.7139 23.806 21.4673 23.5643L20.5835 22.6781C20.4615 22.556 20.3028 22.4974 20.1416 22.4974ZM17.9322 24.7069C17.7735 24.7069 17.6123 24.7655 17.4903 24.89C17.2461 25.1317 17.2461 25.5272 17.4903 25.7713L18.3741 26.6576C18.4961 26.7772 18.6548 26.8382 18.8159 26.8382C18.9771 26.8382 19.1358 26.7772 19.2578 26.6576C19.502 26.4134 19.502 26.0179 19.2578 25.7713L18.3741 24.89C18.252 24.7655 18.0908 24.7069 17.9322 24.7069ZM15.7227 26.9139C15.564 26.9139 15.4029 26.975 15.2808 27.0995C15.0366 27.3436 15.0366 27.7367 15.2808 27.9808L16.1646 28.867C16.2866 28.9867 16.4453 29.0502 16.6065 29.0502C16.7676 29.0502 16.9263 28.9867 17.0484 28.867C17.2925 28.6205 17.2925 28.2274 17.0484 27.9808L16.1646 27.0995C16.0425 26.975 15.8814 26.9139 15.7227 26.9139ZM13.5132 29.1234C13.3521 29.1234 13.1934 29.1844 13.0689 29.3065C12.8247 29.5531 12.8247 29.9461 13.0689 30.1927L13.9551 31.0741C14.0747 31.1961 14.2359 31.2596 14.3946 31.2596C14.5557 31.2596 14.7168 31.1961 14.8365 31.0741C15.083 30.8299 15.083 30.4369 14.8365 30.1927L13.9551 29.3065C13.8306 29.1844 13.6719 29.1234 13.5132 29.1234ZM7.60257 30.3539L12.3462 34.453L11.7383 35.0585C10.52 36.2767 8.53762 36.2767 7.31936 35.0585C6.72854 34.4701 6.40384 33.6839 6.40384 32.849C6.40384 32.014 6.72854 31.2303 7.31936 30.6395L7.60257 30.3539Z" fill="white"/>
<path d="M26.3282 11.0057C26.1695 11.0057 26.0108 11.0668 25.8887 11.1888C25.6421 11.433 25.6421 11.8285 25.8887 12.0726L30.3052 16.4916C30.4273 16.6136 30.5884 16.6747 30.7495 16.6747C30.9082 16.6747 31.0694 16.6136 31.1914 16.4916C31.4356 16.2474 31.4356 15.8519 31.1914 15.6078L26.77 11.1888C26.648 11.0668 26.4893 11.0057 26.3282 11.0057ZM22.3511 20.2855C22.19 20.2855 22.0313 20.3465 21.9092 20.4686C21.6651 20.7152 21.6651 21.1083 21.9092 21.3524L22.793 22.2362C22.9151 22.3583 23.0762 22.4193 23.2349 22.4193C23.396 22.4193 23.5572 22.3583 23.6792 22.2362C23.9234 21.992 23.9234 21.5965 23.6792 21.3524L22.793 20.4686C22.6709 20.3465 22.5122 20.2855 22.3511 20.2855ZM20.1416 22.4974C19.9805 22.4974 19.8218 22.556 19.6997 22.6781C19.4556 22.9222 19.4556 23.3202 19.6997 23.5643L20.586 24.4457C20.7056 24.5677 20.8667 24.6288 21.0254 24.6288C21.1866 24.6288 21.3477 24.5677 21.4673 24.4457C21.7139 24.2015 21.7139 23.806 21.4673 23.5643L20.5835 22.6781C20.4615 22.556 20.3028 22.4974 20.1416 22.4974ZM17.9322 24.7069C17.7735 24.7069 17.6123 24.7655 17.4903 24.89C17.2461 25.1317 17.2461 25.5272 17.4903 25.7713L18.3741 26.6576C18.4961 26.7772 18.6548 26.8382 18.8159 26.8382C18.9771 26.8382 19.1358 26.7772 19.2578 26.6576C19.502 26.4134 19.502 26.0179 19.2578 25.7713L18.3741 24.89C18.252 24.7655 18.0908 24.7069 17.9322 24.7069ZM15.7227 26.9139C15.564 26.9139 15.4029 26.975 15.2808 27.0995C15.0366 27.3436 15.0366 27.7367 15.2808 27.9808L16.1646 28.867C16.2866 28.9867 16.4453 29.0502 16.6065 29.0502C16.7676 29.0502 16.9263 28.9867 17.0484 28.867C17.2925 28.6205 17.2925 28.2274 17.0484 27.9808L16.1646 27.0995C16.0425 26.975 15.8814 26.9139 15.7227 26.9139ZM13.5132 29.1234C13.3521 29.1234 13.1934 29.1844 13.0689 29.3065C12.8247 29.5531 12.8247 29.9461 13.0689 30.1927L13.9551 31.0741C14.0747 31.1961 14.2359 31.2596 14.3946 31.2596C14.5557 31.2596 14.7168 31.1961 14.8365 31.0741C15.083 30.8299 15.083 30.4369 14.8365 30.1927L13.9551 29.3065C13.8306 29.1844 13.6719 29.1234 13.5132 29.1234Z" fill="#0079C0"/>
</svg>
