<svg width="21" height="21" viewBox="0 0 21 21" fill="none" xmlns="http://www.w3.org/2000/svg">
<g clip-path="url(#clip0_329_20)">
<path d="M10.4998 0.839844C5.16945 0.839844 0.839844 5.16945 0.839844 10.4998C0.839844 15.8302 5.16945 20.1598 10.4998 20.1598C15.8302 20.1598 20.1598 15.8302 20.1598 10.4998C20.1598 5.16945 15.8302 0.839844 10.4998 0.839844ZM10.4998 1.67984C15.3758 1.67984 19.3198 5.62391 19.3198 10.4998C19.3198 15.3758 15.3758 19.3198 10.4998 19.3198C5.62391 19.3198 1.67984 15.3758 1.67984 10.4998C1.67984 5.62391 5.62391 1.67984 10.4998 1.67984ZM10.4605 5.02672C10.4424 5.03 10.4244 5.03492 10.408 5.03984C10.2127 5.08414 10.0749 5.25969 10.0798 5.45984V14.5161L7.44172 11.878C7.34 11.773 7.1907 11.7287 7.04797 11.7598C6.89047 11.7877 6.76414 11.9026 6.71984 12.0552C6.67555 12.2094 6.72148 12.3734 6.83797 12.4817L10.1455 15.7761C10.1537 15.7892 10.1619 15.8023 10.1717 15.8155L10.198 15.8417C10.2062 15.8516 10.2144 15.8598 10.2242 15.868C10.2291 15.868 10.2324 15.868 10.2373 15.868C10.2652 15.8942 10.2964 15.9155 10.3292 15.9336C10.3341 15.9336 10.3374 15.9336 10.3423 15.9336C10.3505 15.9385 10.3604 15.9434 10.3686 15.9467C10.3735 15.9467 10.3768 15.9467 10.3817 15.9467C10.3948 15.9516 10.408 15.9566 10.4211 15.9598C10.4654 15.9664 10.508 15.9664 10.5523 15.9598C10.5605 15.9598 10.5704 15.9598 10.5786 15.9598C10.6147 15.9516 10.6508 15.9385 10.6836 15.9205C10.7394 15.8926 10.7886 15.8516 10.828 15.8023L14.1617 12.4817C14.3291 12.3144 14.3291 12.0453 14.1617 11.878C13.9944 11.7106 13.7253 11.7106 13.558 11.878L10.9198 14.5161V5.45984C10.9248 5.33844 10.8755 5.22195 10.7886 5.13992C10.7 5.05625 10.5802 5.01523 10.4605 5.02672Z" fill="#1D1F21"/>
</g>
<defs>
<clipPath id="clip0_329_20">
<rect width="21" height="21" fill="white"/>
</clipPath>
</defs>
</svg>
